<svg xmlns="http://www.w3.org/2000/svg" width="128" height="128" viewBox="0 0 128 128" >
<rect x="5" y="5" width="118" height="118" rx="25" fill="#1a1613"/>
      <path d="M25 30H51C58 30 61 36 64 41H98C104 41 109 46 109 52V92C109 99 104 104 97 104H31C24 104 19 99 19 92V36C19 33 22 30 25 30Z" fill="#3f6f91" opacity="0.55"/>
      <path d="M28 24H56C63 24 66 30 69 36H102C108 36 113 41 113 47V89C113 96 108 101 101 101H29C22 101 17 96 17 89V30C17 27 21 24 28 24Z" fill="#3d7a4a" opacity="0.7"/>
      <path d="M22 38H51C59 38 62 44 65 50H100C107 50 112 55 112 62V96C112 103 107 108 100 108H28C21 108 16 103 16 96V44C16 41 19 38 22 38Z" fill="#fffdf9"/>
      <path d="M22 38H51C59 38 62 44 65 50H100C107 50 112 55 112 62V96C112 103 107 108 100 108H28C21 108 16 103 16 96V44C16 41 19 38 22 38Z" fill="none" stroke="#1a1613" stroke-width="6" stroke-linejoin="round"/>
      <path d="M32 66H83" stroke="#1a1613" stroke-width="8" stroke-linecap="round"/>
      <path d="M32 84H68" stroke="#c8713a" stroke-width="8" stroke-linecap="round"/>
</svg>
