<svg xmlns="http://www.w3.org/2000/svg" width="128" height="128" viewBox="0 0 128 128" >
<rect x="5" y="5" width="118" height="118" rx="25" fill="#3d7a4a"/>
      <path d="M31 29H58C64 29 68 34 71 40H96C102 40 107 45 107 51V88C107 97 100 104 91 104H37C28 104 21 97 21 88V39C21 33 25 29 31 29Z" fill="#fffdf9" stroke="#1a1613" stroke-width="6" stroke-linejoin="round"/>
      <path d="M32 62C43 72 53 77 64 77C75 77 85 72 96 62" fill="none" stroke="#1a1613" stroke-width="7" stroke-linecap="round"/>
      <path d="M39 44H76" stroke="#c8713a" stroke-width="8" stroke-linecap="round"/>
      <path d="M39 56H88" stroke="#1a1613" stroke-width="6" stroke-linecap="round" opacity="0.82"/>
      <circle cx="93" cy="38" r="12" fill="#3f6f91" stroke="#1a1613" stroke-width="5"/>
      <path d="M88 38H98" stroke="#fffdf9" stroke-width="4" stroke-linecap="round"/>
</svg>
